<?xml version="1.0" standalone="no"?>
<!DOCTYPE svg PUBLIC "-//W3C//DTD SVG 20010904//EN"
 "http://www.w3.org/TR/2001/REC-SVG-20010904/DTD/svg10.dtd">
<svg version="1.0" xmlns="http://www.w3.org/2000/svg"
 width="492.000000pt" height="496.000000pt" viewBox="0 0 492.000000 496.000000"
 preserveAspectRatio="xMidYMid meet">

<g transform="translate(0.000000,496.000000) scale(0.100000,-0.100000)"
fill="#000000" stroke="none">
<path d="M0 2480 l0 -2480 2460 0 2460 0 0 2480 0 2480 -2460 0 -2460 0 0
-2480z m2170 1321 c0 -20 -7 -61 -16 -90 -14 -48 -14 -55 1 -77 9 -14 22 -23
28 -21 14 4 34 42 42 80 7 36 19 34 30 -5 14 -47 38 -42 49 10 10 50 31 55 40
10 13 -64 50 -79 60 -23 9 46 38 63 65 36 17 -17 21 -18 32 -5 23 28 89 4 89
-33 0 -18 6 -17 34 12 45 45 76 26 73 -43 -2 -69 16 -74 72 -18 52 52 66 49
55 -9 -9 -51 0 -69 28 -54 36 18 88 71 88 89 0 23 20 40 47 40 33 0 55 -40 52
-92 l-4 -42 58 -14 c78 -19 90 -41 41 -79 -20 -15 -46 -36 -57 -45 l-22 -17
32 -7 c63 -13 218 -162 312 -300 59 -89 126 -235 157 -344 35 -128 45 -360 20
-495 -32 -171 -86 -304 -186 -453 -92 -139 -279 -307 -401 -361 -57 -26 -70
-47 -53 -86 15 -37 2 -74 -32 -89 -11 -5 -25 -19 -30 -30 -14 -32 -52 -32 -84
-1 -39 37 -65 28 -57 -19 7 -45 -1 -51 -30 -24 l-23 22 -28 -26 c-42 -39 -75
-43 -111 -12 -17 14 -31 21 -31 16 0 -20 -34 -22 -60 -4 -23 17 -29 18 -51 6
-36 -20 -57 -17 -85 12 -20 19 -25 33 -22 59 4 31 2 33 -12 20 -9 -8 -26 -15
-38 -15 -12 0 -22 -6 -22 -14 0 -8 -8 -24 -19 -37 -16 -20 -22 -22 -45 -11
-14 6 -28 22 -32 36 -5 21 -10 23 -27 17 -41 -16 -64 3 -82 68 l-17 60 -82 46
c-318 178 -530 471 -592 815 -18 99 -18 319 0 412 43 222 153 434 306 588 73
73 203 187 254 223 22 15 26 26 26 66 0 58 30 104 64 99 18 -3 31 -21 63 -86
0 -2 10 2 21 9 34 21 53 75 46 129 -7 53 9 118 34 137 22 18 32 7 32 -36z
m900 13 c6 -14 10 -32 10 -40 0 -23 -25 -11 -28 14 -4 26 -15 28 -32 7 -14
-17 -40 -20 -40 -6 0 13 50 51 67 51 7 0 18 -12 23 -26z m-230 -104 c0 -5 -4
-10 -10 -10 -5 0 -10 5 -10 10 0 6 5 10 10 10 6 0 10 -4 10 -10z"/>
<path d="M2134 3776 c-3 -21 -4 -39 -1 -42 2 -3 8 11 11 32 4 20 5 38 2 41 -2
3 -8 -11 -12 -31z"/>
<path d="M2430 3684 c0 -34 -17 -64 -37 -64 -9 0 -29 12 -44 26 -26 25 -27 25
-33 6 -9 -26 -32 -35 -59 -21 -16 9 -22 9 -25 -1 -6 -17 -40 -50 -52 -50 -5 0
-21 12 -35 27 -21 23 -25 25 -25 10 0 -49 -102 -102 -113 -59 -4 14 -5 14 -6
-3 -2 -32 -30 -65 -56 -65 -13 0 -25 -3 -27 -7 -1 -5 -28 -27 -58 -49 -97 -73
-275 -256 -330 -338 -110 -165 -169 -332 -191 -544 -25 -246 49 -516 203 -739
63 -92 206 -230 300 -289 186 -119 176 -110 194 -169 17 -60 25 -69 53 -60 15
4 20 18 23 66 5 65 22 89 47 65 14 -15 7 -91 -10 -102 -13 -8 -11 -58 3 -72
22 -22 38 -13 44 28 7 41 20 50 42 28 9 -9 17 -7 35 10 23 21 57 30 57 14 0
-4 -4 -21 -9 -37 -12 -44 2 -75 36 -75 40 0 51 10 55 50 2 27 8 36 24 38 27 4
37 -20 23 -55 -7 -20 -6 -28 3 -35 21 -13 27 -10 43 21 21 41 65 75 79 61 8
-8 3 -17 -16 -32 -30 -21 -36 -46 -16 -66 19 -19 57 -14 83 12 21 21 23 28 13
53 -13 35 -3 83 17 83 22 0 37 -38 31 -79 -5 -32 -4 -33 6 -13 12 25 54 40 73
26 60 -45 67 -48 76 -33 14 22 11 44 -11 67 -24 25 -25 45 -5 62 8 7 15 23 15
36 0 13 5 24 10 24 6 0 10 -7 10 -15 0 -23 38 -18 45 6 4 11 23 28 43 36 117
49 310 216 400 346 138 200 204 410 205 647 0 314 -116 589 -344 812 -72 70
-110 100 -141 110 -61 19 -59 38 8 86 39 28 53 43 43 46 -8 3 -36 12 -63 20
-46 14 -51 14 -74 -5 -37 -29 -67 -25 -82 11 -11 28 -14 29 -33 15 -48 -34
-96 -3 -82 53 6 25 6 25 -23 -6 -55 -59 -102 -37 -102 47 0 52 -24 55 -47 6
-9 -19 -21 -35 -25 -35 -5 0 -17 20 -28 45 -11 25 -23 45 -28 45 -13 0 -39
-32 -47 -58 -7 -26 -32 -24 -27 1 3 20 -15 57 -28 57 -6 0 -10 -12 -10 -26z
m45 -641 c4 -98 3 -143 -4 -143 -7 0 -12 35 -12 93 l-2 92 -9 -92 c-6 -51 -13
-91 -17 -89 -6 4 3 315 16 506 l7 115 7 -170 c4 -93 10 -234 14 -312z m179
430 c-5 -10 -8 -70 -9 -133 0 -105 -3 -120 -29 -175 -25 -54 -37 -125 -46
-267 0 -5 -4 -8 -9 -8 -5 0 -7 19 -5 43 9 116 12 168 7 164 -2 -3 -9 -38 -14
-79 -11 -90 -17 -118 -27 -118 -20 0 22 202 62 296 19 45 26 83 29 146 3 59 9
94 23 116 20 34 31 43 18 15z m-363 -125 c27 -54 33 -78 39 -168 5 -73 16
-128 34 -179 14 -41 26 -81 26 -90 0 -29 -18 5 -48 94 -35 99 -43 97 -12 -3
11 -35 20 -76 19 -90 0 -18 -9 -1 -25 48 -19 56 -27 108 -33 205 -5 101 -12
141 -29 179 -13 29 -22 67 -21 95 l1 46 9 -37 c5 -21 23 -66 40 -100z m540 6
c-179 -486 -190 -515 -191 -485 0 7 11 44 25 82 13 38 23 69 21 69 -2 0 -21
-35 -41 -77 -21 -43 -39 -73 -41 -67 -4 9 56 145 178 404 22 47 47 102 55 123
28 70 23 31 -6 -49z m-642 -218 c61 -132 111 -247 110 -255 0 -9 -20 26 -44
77 -24 50 -46 92 -49 92 -2 0 11 -38 30 -85 35 -87 40 -105 27 -105 -5 0 -21
35 -36 78 -16 42 -48 131 -72 197 -24 66 -58 156 -74 200 -31 80 -41 127 -16
70 7 -16 63 -138 124 -269z m-222 75 c65 -63 83 -88 105 -146 20 -50 46 -91
93 -143 36 -40 63 -77 60 -83 -3 -5 -28 17 -54 49 -54 65 -101 107 -63 57 13
-16 36 -48 52 -69 42 -54 37 -70 -6 -21 -51 57 -99 134 -114 180 -21 64 -48
112 -85 150 -52 51 -85 104 -84 134 l1 26 8 -29 c5 -15 44 -63 87 -105z m1034
72 c-11 -21 -30 -67 -42 -101 -17 -48 -38 -81 -87 -134 -42 -47 -78 -98 -104
-154 -22 -46 -44 -84 -49 -84 -14 0 -12 4 37 101 25 50 44 93 42 94 -2 2 -24
-33 -49 -78 -25 -44 -51 -83 -58 -85 -31 -10 95 186 144 225 45 36 92 101 111
155 12 35 58 98 71 98 2 0 -5 -17 -16 -37z m-1048 -302 c108 -101 197 -188
197 -194 0 -6 -19 7 -42 29 -24 22 -56 51 -73 64 l-30 25 25 -30 c14 -16 30
-34 35 -40 43 -44 67 -75 58 -75 -6 0 -64 57 -129 128 -64 70 -152 163 -194
207 -78 82 -112 127 -69 89 13 -11 113 -103 222 -203z m1166 131 c-46 -49
-140 -150 -209 -224 -69 -75 -127 -132 -129 -126 -1 5 24 38 58 73 83 87 77
94 -9 10 -39 -37 -74 -65 -77 -61 -4 3 36 46 88 94 52 48 150 140 219 205 69
64 129 116 134 117 4 0 -29 -40 -75 -88z m-1447 -126 c61 -12 133 -53 191
-109 39 -39 85 -70 142 -97 76 -36 111 -60 88 -60 -5 0 -52 22 -106 49 -111
56 -121 50 -14 -9 40 -21 81 -46 92 -54 35 -27 -2 -17 -55 14 -28 17 -55 30
-60 30 -5 0 -50 38 -98 84 -67 63 -108 93 -164 119 -41 19 -82 45 -91 58 -26
36 -20 40 13 9 16 -15 44 -31 62 -34z m1633 39 c-22 -8 -48 -25 -58 -37 -48
-62 -106 -111 -156 -134 -90 -40 -114 -55 -156 -93 -80 -72 -95 -84 -101 -78
-6 6 46 57 118 117 13 11 18 19 13 20 -6 0 -21 -10 -35 -22 -48 -44 -101 -79
-111 -76 -21 7 141 120 220 153 81 33 127 61 152 91 30 37 93 74 123 74 31 -1
31 -1 -9 -15z m-735 -166 c69 -18 154 -74 203 -134 71 -88 91 -149 92 -270 0
-92 -3 -105 -32 -167 -126 -266 -462 -331 -670 -131 -71 69 -109 143 -122 239
-19 130 18 248 108 346 106 116 263 159 421 117z m-980 -35 c52 -19 176 -64
275 -101 188 -68 192 -70 183 -78 -3 -3 -42 8 -88 25 -46 17 -84 29 -86 28 -1
-2 32 -19 74 -37 83 -37 105 -51 80 -51 -8 0 -58 20 -109 44 -82 38 -256 119
-399 184 -71 32 -34 25 70 -14z m1780 8 c-30 -15 -143 -67 -250 -116 -107 -49
-208 -95 -224 -103 -20 -10 -27 -11 -24 -3 2 7 41 29 86 50 104 47 118 60 27
25 -116 -44 -126 -48 -132 -42 -3 4 5 11 18 16 56 25 535 200 544 200 6 0 -15
-12 -45 -27z m-1923 -173 c8 -8 57 -12 135 -13 107 -1 128 -4 165 -23 44 -24
143 -42 226 -43 28 0 47 -5 47 -11 0 -8 -29 -10 -102 -4 -55 4 -108 9 -117 13
-9 3 -13 2 -9 -3 4 -4 53 -14 109 -21 94 -12 119 -18 108 -28 -11 -9 -177 17
-223 36 -119 48 -154 57 -212 58 -34 0 -76 5 -95 11 -34 12 -72 39 -53 39 5 0
15 -5 21 -11z m2033 1 c11 -7 6 -8 -17 -4 -25 5 -49 -2 -109 -32 -70 -34 -88
-39 -183 -45 -75 -5 -127 -15 -178 -33 -67 -24 -114 -34 -101 -21 3 4 48 21
99 40 103 37 108 47 7 15 -97 -30 -141 -25 -48 6 56 18 110 27 210 33 102 6
146 14 180 29 48 22 116 28 140 12z m-1475 -180 c4 -6 -13 -10 -42 -11 -26 0
-70 -4 -98 -9 -44 -6 -38 -7 48 -9 65 -1 97 -5 97 -12 0 -9 -27 -10 -97 -6
-54 4 -191 10 -306 13 -114 4 -205 9 -203 12 3 2 135 10 293 17 158 7 291 13
295 14 4 0 10 -3 13 -9z m1501 -22 c2 -3 -87 -8 -198 -12 -112 -3 -249 -9
-305 -13 -75 -4 -103 -3 -103 6 0 7 30 11 93 12 99 2 95 4 -26 14 -42 4 -75
10 -73 13 4 8 604 -13 612 -20z m-1496 -65 c0 -10 -153 -65 -205 -74 -30 -5
-33 -7 -13 -8 15 0 67 10 114 24 95 27 114 30 114 15 0 -5 -8 -10 -17 -10 -10
0 -47 -9 -81 -20 -46 -14 -93 -20 -165 -20 -77 -1 -116 -6 -157 -21 -102 -37
-118 -40 -152 -30 l-33 9 38 1 c22 1 67 16 110 38 65 33 83 37 182 44 81 5
127 14 175 32 68 27 90 32 90 20z m987 -12 c53 -7 109 -22 155 -42 57 -25 94
-33 168 -39 93 -7 150 -24 150 -43 0 -5 -6 -5 -13 2 -8 6 -55 10 -123 8 -101
-2 -114 0 -173 27 -55 25 -160 43 -268 46 -7 0 -13 4 -13 9 0 5 17 7 38 5 81
-8 184 -13 180 -9 -2 3 -40 9 -84 15 -104 14 -124 19 -124 30 0 5 6 7 13 5 6
-2 49 -9 94 -14z m-961 -78 c-4 -5 -47 -27 -94 -51 -94 -46 -89 -46 31 -1 42
16 77 24 77 19 0 -6 -2 -10 -4 -10 -1 0 -32 -11 -67 -24 -369 -137 -503 -185
-506 -183 -2 2 70 37 160 77 89 41 212 97 272 126 101 48 150 66 131 47z
m1131 -125 c144 -67 262 -123 260 -124 -3 -3 -374 133 -517 189 -36 14 -58 26
-49 26 9 1 47 -10 84 -24 37 -14 69 -24 72 -22 2 3 -30 19 -72 37 -41 19 -75
38 -75 43 0 12 -7 15 297 -125z m-1138 5 c-23 -21 -48 -43 -54 -50 -7 -6 -29
-23 -50 -37 -21 -14 -34 -26 -29 -26 10 0 41 21 128 89 31 24 60 41 63 37 4
-3 -2 -13 -13 -21 -12 -7 -41 -31 -65 -51 -41 -34 -70 -50 -189 -100 -25 -10
-73 -45 -107 -76 -60 -56 -98 -75 -125 -65 -7 3 -3 6 9 6 12 1 36 18 55 38 62
70 110 112 146 128 21 9 55 26 78 36 23 11 74 48 115 84 77 67 112 74 38 8z
m883 6 c40 -23 106 -74 146 -113 52 -51 95 -82 154 -111 45 -22 88 -51 97 -63
15 -24 15 -24 -24 2 -21 14 -45 26 -54 26 -34 0 -138 60 -191 110 -32 31 -91
70 -142 96 -49 24 -88 48 -88 54 0 9 114 -40 160 -69 13 -9 21 -11 17 -4 -4 6
-41 30 -82 52 -41 23 -75 46 -75 51 0 14 1 14 82 -31z m-792 -49 c-6 -10 -16
-23 -23 -27 -6 -5 -32 -30 -57 -57 l-45 -50 40 31 c22 17 53 45 69 62 17 17
37 31 45 31 13 -1 12 -3 -3 -15 -11 -8 -49 -43 -85 -78 -144 -137 -350 -327
-356 -327 -3 0 88 101 202 225 194 210 239 254 213 205z m905 -235 c71 -77
140 -153 154 -170 l26 -30 -30 26 c-56 48 -425 391 -425 395 0 12 21 -1 60
-39 83 -78 95 -83 32 -11 -34 39 -62 75 -62 80 0 11 66 -57 245 -251z m-835
190 c0 -3 -16 -37 -36 -76 -19 -39 -33 -73 -30 -76 2 -3 15 15 27 39 26 52 60
101 65 95 13 -12 -86 -167 -141 -221 -72 -71 -98 -107 -114 -158 -14 -43 -44
-84 -74 -100 -19 -10 -19 -8 4 20 15 16 32 52 38 79 16 63 42 105 110 178 35
37 71 91 96 143 21 45 43 82 47 82 4 0 8 -2 8 -5z m593 -75 c32 -43 70 -110
84 -147 31 -80 50 -110 115 -180 34 -37 48 -60 48 -80 l-1 -28 -13 30 c-8 17
-42 54 -76 84 -52 45 -69 69 -102 140 -25 56 -60 109 -99 152 -32 37 -59 73
-59 81 0 7 15 -3 32 -22 17 -19 51 -57 75 -84 24 -26 43 -46 43 -43 0 2 -27
39 -60 82 -33 43 -60 82 -60 86 0 21 19 3 73 -71z m-547 -66 c-20 -48 -34 -89
-32 -91 1 -2 22 38 46 89 24 51 45 88 47 82 2 -7 -25 -74 -60 -150 -35 -77
-90 -196 -122 -266 -33 -70 -61 -126 -63 -124 -3 4 173 487 200 546 6 14 12
20 15 14 2 -7 -12 -51 -31 -100z m525 -204 c54 -145 97 -266 95 -267 -3 -3
-21 35 -171 361 -85 185 -110 263 -41 130 41 -80 46 -74 12 13 -13 34 -21 64
-18 68 7 7 1 24 123 -305z m-415 178 l-5 -103 14 94 c14 88 20 110 29 100 1
-2 -1 -43 -6 -91 -6 -66 -17 -108 -45 -170 -30 -69 -37 -99 -43 -179 -4 -65
-12 -105 -23 -123 -21 -32 -32 -34 -16 -3 8 13 13 66 13 132 1 96 4 118 28
176 21 51 29 91 34 168 4 56 11 101 16 101 5 0 7 -45 4 -102z m224 74 c0 -9 9
-46 20 -80 14 -46 20 -93 20 -165 1 -67 6 -116 16 -142 38 -97 46 -135 36
-163 l-10 -27 -1 31 c-1 18 -18 67 -38 110 -33 70 -38 91 -44 184 -5 76 -14
126 -34 183 -15 43 -24 81 -21 84 3 4 7 4 9 2 7 -11 67 -197 70 -219 l4 -25 2
26 c0 15 -8 55 -19 90 -27 84 -37 144 -22 135 7 -4 12 -15 12 -24z m-123 -94
l10 -103 1 103 c1 69 6 102 13 102 9 0 10 -27 6 -97 -4 -54 -10 -192 -14 -308
-9 -247 -17 -207 -27 135 -4 118 -9 227 -12 243 -3 15 -1 27 4 27 5 0 14 -46
19 -102z"/>
<path d="M2070 3000 c6 -11 13 -20 16 -20 2 0 0 9 -6 20 -6 11 -13 20 -16 20
-2 0 0 -9 6 -20z"/>
<path d="M2990 2840 c-8 -5 -10 -10 -5 -10 6 0 17 5 25 10 8 5 11 10 5 10 -5
0 -17 -5 -25 -10z"/>
<path d="M2253 2609 c-58 -29 -55 -43 3 -17 77 33 155 9 173 -55 l9 -32 1 28
c1 42 -14 63 -59 81 -53 21 -76 20 -127 -5z"/>
<path d="M2523 2611 c-35 -16 -44 -26 -53 -61 -6 -23 -9 -47 -7 -53 2 -7 7 4
11 24 10 56 46 83 109 83 31 0 66 -8 87 -19 33 -17 34 -17 20 0 -18 22 -71 45
-102 45 -13 0 -42 -9 -65 -19z"/>
<path d="M2255 2560 c-12 -4 -27 -15 -34 -24 -12 -14 -12 -16 4 -10 13 5 16 4
11 -4 -10 -17 24 -49 61 -56 29 -7 93 14 93 30 0 2 -9 0 -20 -6 -51 -27 -153
11 -110 41 12 9 11 10 -5 5 -20 -6 -20 -6 -1 9 22 17 73 20 96 5 10 -7 1 -8
-31 -4 -49 7 -46 10 -40 -48 1 -5 12 -8 26 -8 22 0 30 9 26 33 0 4 6 7 15 7
10 0 14 -6 10 -15 -3 -8 -2 -15 3 -15 16 0 21 13 10 27 -8 9 -8 13 -1 13 6 0
14 -4 17 -10 3 -5 12 -10 18 -10 7 0 -6 12 -28 25 -40 25 -83 31 -120 15z"/>
<path d="M2530 2544 c-19 -14 -27 -24 -17 -21 11 4 17 1 17 -7 0 -8 -5 -16
-12 -18 -6 -2 5 -12 26 -22 27 -12 46 -15 69 -9 31 7 30 8 -18 13 -41 4 -50 9
-50 24 0 27 21 31 28 6 8 -32 52 -24 52 10 0 22 -4 25 -37 24 -21 -1 -35 3
-32 7 10 17 77 9 113 -13 l36 -21 -22 23 c-15 16 -36 24 -70 27 -41 4 -53 1
-83 -23z"/>
<path d="M2645 2514 c1 -13 5 -26 8 -29 4 -3 5 -2 2 2 -3 3 3 12 12 18 15 11
15 13 -3 23 -17 9 -19 7 -19 -14z"/>
<path d="M2431 2475 c-1 -11 -8 -32 -15 -47 -8 -16 -11 -28 -6 -28 11 0 33 67
27 83 -3 6 -6 3 -6 -8z"/>
<path d="M2476 2445 c4 -16 11 -34 16 -40 7 -7 8 -1 3 15 -12 40 -26 59 -19
25z"/>
<path d="M2360 2373 c1 -24 21 -30 95 -29 72 1 80 3 83 21 2 15 1 17 -6 6 -6
-8 -17 -11 -27 -7 -10 3 -24 1 -32 -5 -10 -9 -20 -9 -38 -1 -14 6 -32 9 -40 6
-8 -4 -15 -1 -15 5 0 6 -4 11 -10 11 -5 0 -10 -3 -10 -7z"/>
<path d="M2384 2294 c-18 -14 -18 -15 1 -5 23 10 113 9 135 -3 8 -4 7 -1 -3 7
-24 20 -109 20 -133 1z"/>
<path d="M2413 2264 c3 -3 22 -6 42 -6 20 0 39 3 42 6 4 3 -15 6 -42 6 -27 0
-46 -3 -42 -6z"/>
<path d="M2502 2244 c-25 -17 -74 -22 -95 -8 -7 5 -6 2 3 -6 9 -9 15 -20 13
-25 -1 -6 15 -11 38 -12 36 -1 38 0 22 13 -15 11 -16 13 -2 14 9 0 24 9 34 20
22 24 17 26 -13 4z"/>
<path d="M2099 1913 c-13 -16 -12 -17 4 -4 9 7 17 15 17 17 0 8 -8 3 -21 -13z"/>
<path d="M2680 1895 c0 -5 5 -17 10 -25 5 -8 10 -10 10 -5 0 6 -5 17 -10 25
-5 8 -10 11 -10 5z"/>
<path d="M2965 3659 c-7 -22 20 -70 40 -73 14 -2 18 36 6 67 -13 32 -37 35
-46 6z"/>
<path d="M1947 3604 c-4 -4 -7 -28 -7 -53 l1 -46 20 24 c11 14 19 35 17 49 -3
26 -18 38 -31 26z"/>
<path d="M2936 3595 c-18 -48 4 -80 34 -49 17 18 17 20 -5 42 -20 21 -23 22
-29 7z"/>
<path d="M2860 1370 c-9 -6 -10 -10 -3 -10 6 0 15 5 18 10 8 12 4 12 -15 0z"/>
<path d="M2893 1353 c-7 -2 -13 -16 -13 -30 0 -35 34 -27 38 10 3 27 -1 30
-25 20z"/>
<path d="M2665 1300 c3 -5 8 -10 11 -10 2 0 4 5 4 10 0 6 -5 10 -11 10 -5 0
-7 -4 -4 -10z"/>
</g>
</svg>
